<?xml version="1.0" standalone="no"?>
<!DOCTYPE svg PUBLIC "-//W3C//DTD SVG 20010904//EN"
 "http://www.w3.org/TR/2001/REC-SVG-20010904/DTD/svg10.dtd">
<svg version="1.0" xmlns="http://www.w3.org/2000/svg"
 width="512.000000pt" height="512.000000pt" viewBox="0 0 512.000000 512.000000"
 preserveAspectRatio="xMidYMid meet">

<g transform="translate(0.000000,512.000000) scale(0.100000,-0.100000)"
fill="#000000" stroke="none">
<path d="M2240 3575 l0 -695 -1120 0 -1120 0 0 -320 0 -320 1120 0 1120 0 0
-695 0 -695 320 0 320 0 0 695 0 695 1120 0 1120 0 0 320 0 320 -1120 0 -1120
0 0 695 0 695 -320 0 -320 0 0 -695z"/>
<path d="M0 4107 l0 -155 721 -401 722 -401 276 0 c232 0 273 2 261 14 -15 13
-1935 1081 -1965 1092 -13 5 -15 -16 -15 -149z"/>
<path d="M585 4241 c49 -31 1403 -781 1409 -781 3 0 6 180 6 400 l0 400 -722
0 c-710 0 -722 -1 -693 -19z"/>
<path d="M3120 3779 c0 -264 3 -478 8 -476 4 2 378 210 832 462 454 251 839
466 855 476 29 18 13 19 -832 19 l-863 0 0 -481z"/>
<path d="M4125 3714 c-539 -300 -984 -549 -989 -555 -6 -5 92 -9 264 -9 l275
0 722 401 723 402 0 153 c0 85 -3 154 -7 154 -5 -1 -449 -246 -988 -546z"/>
<path d="M0 3484 l0 -324 583 0 c333 0 576 4 567 9 -8 5 -270 151 -582 324
l-568 315 0 -324z"/>
<path d="M4678 3407 l-436 -242 435 -3 c240 -1 438 -1 440 1 2 2 2 113 1 245
l-3 242 -437 -243z"/>
<path d="M723 1569 l-723 -402 0 -154 c0 -120 3 -154 13 -150 24 9 1962 1088
1971 1098 6 5 -92 9 -265 9 l-274 0 -722 -401z"/>
<path d="M3121 1966 c6 -6 1972 -1098 1987 -1103 9 -4 12 30 12 150 l0 155
-721 401 -722 401 -280 0 c-154 0 -278 -2 -276 -4z"/>
<path d="M0 1715 c0 -135 2 -245 4 -245 4 0 869 480 875 486 2 2 -194 4 -437
4 l-442 0 0 -245z"/>
<path d="M3970 1951 c8 -5 270 -151 583 -324 l567 -315 0 324 0 324 -582 0
c-334 0 -577 -4 -568 -9z"/>
<path d="M1138 1341 l-858 -476 857 -3 c471 -1 858 -1 860 1 2 2 2 218 1 479
l-3 476 -857 -477z"/>
<path d="M3120 1260 l0 -400 723 0 c709 0 721 1 692 19 -49 31 -1403 781
-1409 781 -3 0 -6 -180 -6 -400z"/>
</g>
</svg>
