<svg width="375" height="242" viewBox="0 0 375 242" fill="none" xmlns="http://www.w3.org/2000/svg">
<path opacity="0.56" fill-rule="evenodd" clip-rule="evenodd" d="M288.381 94.575L290.469 95.7376L292.603 96.9367L294.783 98.1683L297.011 99.429L299.285 100.715L301.607 102.022L303.974 103.347L306.389 104.685L308.849 106.033L311.354 107.386L313.904 108.741L316.498 110.093L319.134 111.437L321.81 112.769L324.527 114.085L327.281 115.378L330.07 116.645L332.892 117.879L335.745 119.075L338.624 120.227L341.527 121.329L344.449 122.375L347.387 123.357L350.336 124.27L353.29 125.107L356.245 125.86L359.193 126.521L362.129 127.085L365.047 127.543L367.938 127.888L370.797 128.115L373.615 128.215L376.386 128.184L379.101 128.015L381.753 127.704L384.336 127.246L386.84 126.636L389.26 125.873L391.588 124.954L393.82 123.878L395.947 122.643L397.966 121.252L399.872 119.704L401.66 118.001L403.327 116.148L404.87 114.147L406.286 112.002L407.574 109.719L408.734 107.304L409.764 104.762L410.665 102.1L411.439 99.3264L412.086 96.4479L412.611 93.4727L413.015 90.4092L413.303 87.2656L413.478 84.0509L413.547 80.7736L413.513 77.4425L413.383 74.0663L413.163 70.6536L412.86 67.2128L412.481 63.7522L412.033 60.2798L411.523 56.8032L410.961 53.3298L410.354 49.8666L409.709 46.4199L409.035 42.9959L408.341 39.6002L407.634 36.2378L406.924 32.9132L406.216 29.6305L405.521 26.393L404.845 23.2037L404.195 20.0648L403.58 16.9781L403.005 13.9447L402.478 10.9654L402.004 8.04009L401.589 5.16837L401.238 2.34937L400.957 -0.418459L400.748 -3.13693L400.618 -5.80842L400.567 -8.43573L400.6 -11.0219L400.718 -13.5705L400.924 -16.0852L401.218 -18.5702L401.601 -21.0297L402.073 -23.4682L402.634 -25.8905L403.282 -28.3014L404.017 -30.7057L404.835 -33.1084L405.735 -35.5146L406.713 -37.9292L407.767 -40.3571L408.891 -42.8033L410.083 -45.2724L411.336 -47.7691L412.646 -50.2978L414.006 -52.8627L415.412 -55.4678L416.857 -58.1168L418.333 -60.8132L419.834 -63.56L421.352 -66.3601L422.88 -69.2158L424.408 -72.129L425.931 -75.1012L427.439 -78.1337L428.925 -81.2269L430.383 -84.3812L431.804 -87.5964L433.182 -90.8719L434.51 -94.2067L435.782 -97.5995L436.991 -101.049L438.132 -104.552L439.197 -108.107L440.183 -111.711L441.083 -115.362L441.892 -119.054L442.605 -122.786L443.217 -126.552L443.724 -130.349L444.122 -134.171L444.406 -138.015L444.573 -141.875L444.62 -145.745L444.544 -149.62L444.341 -153.495L444.011 -157.363L443.55 -161.219L442.958 -165.056L442.235 -168.869L441.379 -172.652L440.391 -176.399L439.271 -180.104L438.021 -183.761L436.643 -187.365L435.138 -190.91L433.509 -194.391L431.761 -197.805L429.895 -201.145L427.917 -204.409L425.831 -207.593L423.642 -210.693L421.356 -213.707L418.978 -216.633L416.514 -219.469L413.971 -222.215L411.356 -224.87L408.675 -227.433L405.935 -229.906L403.143 -232.289L400.306 -234.586L397.432 -236.797L394.527 -238.926L391.599 -240.977L388.654 -242.953L385.699 -244.858L382.74 -246.699L379.784 -248.479L376.837 -250.205L373.904 -251.882L370.99 -253.516L368.1 -255.115L365.239 -256.685L362.41 -258.232L359.618 -259.763L356.865 -261.285L354.153 -262.804L351.485 -264.328L348.863 -265.863L346.287 -267.415L343.759 -268.991L341.278 -270.595L338.845 -272.233L336.458 -273.911L334.117 -275.633L331.819 -277.403L329.564 -279.225L327.349 -281.102L325.172 -283.037L323.03 -285.032L320.919 -287.087L318.837 -289.205L316.781 -291.386L314.746 -293.628L312.729 -295.933L310.726 -298.297L308.734 -300.718L306.749 -303.196L304.767 -305.724L302.784 -308.301L300.796 -310.922L298.8 -313.581L296.793 -316.273L294.77 -318.991L292.729 -321.729L290.667 -324.479L288.581 -327.233L286.467 -329.98L284.324 -332.713L282.149 -335.419L279.94 -338.09L277.698 -340.716L275.42 -343.286L273.106 -345.791L270.756 -348.222L268.371 -350.568L265.951 -352.819L263.497 -354.964L261.01 -356.993L258.492 -358.894L255.944 -360.659L253.37 -362.276L250.773 -363.737L248.154 -365.033L245.519 -366.156L242.869 -367.098L240.211 -367.853L237.547 -368.416L234.883 -368.782L232.223 -368.948L229.571 -368.911L226.933 -368.67L224.313 -368.225L221.715 -367.577L219.146 -366.727L216.608 -365.68L214.107 -364.438L211.647 -363.008L209.23 -361.396L206.862 -359.609L204.545 -357.654L202.282 -355.542L200.076 -353.282L197.928 -350.885L195.841 -348.362L193.815 -345.724L191.852 -342.985L189.951 -340.158L188.113 -337.255L186.337 -334.29L184.621 -331.278L182.964 -328.231L181.364 -325.165L179.818 -322.092L178.324 -319.027L176.878 -315.983L175.476 -312.973L174.114 -310.011L172.788 -307.109L171.493 -304.279L170.224 -301.532L168.976 -298.88L167.743 -296.331L166.521 -293.897L165.302 -291.584L164.082 -289.402L162.854 -287.356L161.613 -285.453L160.354 -283.698L159.07 -282.095L157.756 -280.648L156.407 -279.358L155.018 -278.227L153.584 -277.255L152.101 -276.442L150.563 -275.787L148.968 -275.286L147.311 -274.938L145.59 -274.737L143.802 -274.679L141.944 -274.759L140.014 -274.97L138.012 -275.305L135.936 -275.756L133.786 -276.316L131.562 -276.975L129.265 -277.724L126.896 -278.552L124.456 -279.451L121.948 -280.409L119.374 -281.414L116.739 -282.455L114.046 -283.521L111.299 -284.598L108.505 -285.675L105.668 -286.739L102.796 -287.777L99.8944 -288.777L96.9715 -289.726L94.0351 -290.61L91.0936 -291.418L88.1554 -292.138L85.2293 -292.759L82.3237 -293.27L79.4472 -293.663L76.6084 -293.928L73.816 -294.058L71.0788 -294.044L68.4054 -293.881L65.8044 -293.563L63.2844 -293.083L60.8534 -292.438L58.5193 -291.625L56.2897 -290.64L54.1716 -289.483L52.1718 -288.153L50.2962 -286.649L48.5504 -284.974L46.9393 -283.13L45.4672 -281.119L44.1378 -278.946L42.9538 -276.614L41.9176 -274.131L41.0305 -271.501L40.2932 -268.731L39.7058 -265.83L39.2673 -262.806L38.9763 -259.665L38.8304 -256.419L38.8265 -253.076L38.9609 -249.645L39.229 -246.137L39.6258 -242.561L40.1455 -238.928L40.7814 -235.248L41.5268 -231.532L42.3738 -227.788L43.3146 -224.028L44.3404 -220.26L45.4423 -216.495L46.6109 -212.741L47.8366 -209.007L49.1092 -205.301L50.4187 -201.632L51.7546 -198.007L53.1064 -194.432L54.4636 -190.914L55.8155 -187.459L57.1517 -184.07L58.4617 -180.753L59.7354 -177.512L60.9625 -174.348L62.1335 -171.265L63.2389 -168.264L64.2697 -165.346L65.2173 -162.51L66.0736 -159.757L66.8311 -157.084L67.4828 -154.491L68.0223 -151.974L68.4442 -149.53L68.7433 -147.156L68.9157 -144.847L68.9578 -142.598L68.8671 -140.404L68.6418 -138.259L68.2811 -136.157L67.7849 -134.092L67.1541 -132.056L66.3904 -130.044L65.4963 -128.047L64.4754 -126.06L63.3318 -124.073L62.0707 -122.081L60.698 -120.076L59.2203 -118.051L57.6448 -116L55.9795 -113.916L54.2328 -111.792L52.4138 -109.624L50.5318 -107.405L48.5964 -105.132L46.6176 -102.798L44.6052 -100.402L42.5691 -97.938L40.5193 -95.4049L38.4655 -92.8L36.4169 -90.1215L34.382 -87.3682L32.3687 -84.5395L30.3842 -81.6351L28.4352 -78.655L26.5277 -75.5997L24.6673 -72.4699L22.8588 -69.2667L21.1066 -65.9914L19.4148 -62.6453L17.7871 -59.2302L16.2274 -55.748L14.7393 -52.2006L13.3264 -48.5906L11.992 -44.9203L10.7394 -41.1924L9.57159 -37.4098L8.49133 -33.5754L7.50112 -29.6924L6.60322 -25.764L5.79965 -21.7936L5.09215 -17.7845L4.48223 -13.7404L3.97115 -9.66467L3.55996 -5.56104L3.24949 -1.43309L3.04039 2.71552L2.93308 6.88103L2.92784 11.0597L3.02479 15.2479L3.22393 19.4418L3.52508 23.6376L3.92798 27.8317L4.43227 32.0201L5.03748 36.1991L5.74306 40.365L6.54837 44.5138L7.45274 48.6419L8.45538 52.7452L9.55548 56.82L10.7521 60.8625L12.0444 64.8686L13.4313 68.8345L14.9117 72.7563L16.4845 76.6301L18.1484 80.4519L19.9023 84.2178L21.7447 87.9239L23.6742 91.5663L25.6893 95.141L27.7884 98.6442L29.9697 102.072L32.2315 105.421L34.5718 108.687L36.9886 111.866L39.4798 114.956L42.0432 117.952L44.6764 120.851L47.3769 123.65L50.1421 126.346L52.9693 128.935L55.8558 131.416L58.7985 133.786L61.7945 136.041L64.8407 138.181L67.9338 140.202L71.0706 142.104L74.2476 143.885L77.4614 145.543L80.7085 147.077L83.9853 148.487L87.2882 149.772L90.6137 150.932L93.958 151.967L97.3174 152.877L100.688 153.663L104.067 154.326L107.45 154.867L110.834 155.286L114.214 155.587L117.589 155.771L120.953 155.84L124.304 155.796L127.639 155.643L130.954 155.384L134.246 155.021L137.513 154.558L140.751 153.999L143.958 153.349L147.131 152.61L150.267 151.789L153.365 150.89L156.422 149.916L159.438 148.871L162.409 147.76L165.336 146.586L168.216 145.353L171.05 144.064L173.835 142.724L176.572 141.336L179.259 139.906L181.895 138.437L184.482 136.933L187.018 135.397L189.503 133.833L191.938 132.243L194.322 130.629L196.657 128.994L198.943 127.341L201.179 125.672L203.367 123.989L205.507 122.296L207.599 120.594L209.645 118.887L211.644 117.178L213.598 115.471L215.508 113.768L217.374 112.073L219.198 110.391L220.981 108.725L222.723 107.079L224.427 105.457L226.094 103.864L227.725 102.304L229.322 100.781L230.887 99.2987L232.422 97.8621L233.93 96.4752L235.411 95.1419L236.869 93.8661L238.306 92.6516L239.724 91.5017L241.127 90.42L242.515 89.4093L243.893 88.4727L245.263 87.6125L246.627 86.8312L247.989 86.1306L249.351 85.5126L250.715 84.9783L252.086 84.5288L253.464 84.165L254.854 83.8871L256.258 83.6953L257.677 83.5893L259.116 83.5687L260.575 83.6326L262.058 83.78L263.567 84.0094L265.103 84.3194L266.67 84.708L268.268 85.1731L269.899 85.7126L271.566 86.3238L273.27 87.0042L275.013 87.7511L276.795 88.5613L278.617 89.4318L280.482 90.3595L282.39 91.3411L284.342 92.3732L286.339 93.4523L288.381 94.575Z" fill="url(#paint0_linear_377_1115)"/>
<path fill-rule="evenodd" clip-rule="evenodd" d="M461.642 -49.7489V-49.7489L464.301 -48.319L467.033 -46.8608L469.834 -45.3728L472.698 -43.8537L475.621 -42.3023L478.596 -40.7172L481.62 -39.0975L484.686 -37.4421L487.789 -35.7501L490.922 -34.0208L494.079 -32.2535L497.255 -30.4475L500.442 -28.6025L503.634 -26.7182L506.822 -24.7945L510 -22.8312L513.159 -20.8287L516.29 -18.7874L519.385 -16.7078L522.432 -14.5907L525.424 -12.4371L528.348 -10.2485L531.193 -8.02636L533.949 -5.77254L536.602 -3.48925L539.141 -1.17898L541.552 1.15547L543.823 3.51096L545.938 5.88404L547.887 8.27096L549.655 10.6677L551.231 13.0702L552.601 15.4736L553.755 17.8735L554.681 20.265L555.369 22.6429L555.812 25.0023L556 27.3381L555.928 29.6452L555.59 31.9187L554.984 34.1537L554.106 36.3454L552.956 38.4893L551.535 40.5812L549.845 42.6171L547.889 44.5931L545.671 46.506L543.199 48.3528L540.479 50.1307L537.52 51.8377L534.332 53.4719L530.924 55.032L527.309 56.517L523.498 57.9266L519.505 59.2607L515.343 60.5198L511.026 61.7048L506.568 62.8172L501.985 63.8588L497.291 64.8318L492.501 65.7389L487.63 66.5832L482.693 67.3681L477.704 68.0974L472.679 68.7752L467.631 69.406L462.574 69.9945L457.521 70.5455L452.484 71.0643L447.475 71.5562L442.505 72.0267L437.586 72.4813L432.725 72.9257L427.933 73.3656L423.216 73.8067L418.582 74.2548L414.037 74.7153L409.586 75.194L405.233 75.6962L400.982 76.227L396.833 76.7917L392.79 77.3949L388.853 78.0415L385.02 78.7356L381.292 79.4813L377.665 80.2824L374.136 81.1422L370.703 82.0638L367.361 83.0499L364.105 84.1027L360.929 85.2243L357.827 86.4161L354.793 87.6791L351.819 89.0141L348.898 90.4214L346.022 91.9008L343.182 93.4517L340.372 95.0732L337.581 96.7637L334.802 98.5215L332.025 100.344L329.241 102.23L326.443 104.174L323.622 106.174L320.768 108.226L317.874 110.326L314.931 112.468L311.931 114.648L308.867 116.859L305.732 119.097L302.518 121.354L299.221 123.624L295.833 125.902L292.351 128.181L288.771 130.454L285.089 132.715L281.302 134.959L277.408 137.178L273.406 139.367L269.295 141.521L265.075 143.632L260.745 145.696L256.307 147.706L251.763 149.657L247.114 151.543L242.362 153.358L237.512 155.098L232.566 156.756L227.529 158.329L222.406 159.81L217.201 161.195L211.92 162.48L206.569 163.659L201.154 164.73L195.683 165.688L190.163 166.53L184.601 167.252L179.005 167.853L173.383 168.329L167.743 168.68L162.093 168.904L156.443 169L150.8 168.968L145.173 168.807L139.57 168.52L133.999 168.106L128.469 167.568L122.986 166.909L117.558 166.13L112.192 165.236L106.894 164.229L101.67 163.116L96.5257 161.899L91.4651 160.585L86.4925 159.179L81.6113 157.687L76.824 156.115L72.1325 154.469L67.538 152.757L63.0409 150.985L58.6406 149.16L54.3361 147.289L50.1254 145.38L46.0059 143.44L41.9742 141.476L38.0262 139.494L34.1574 137.503L30.3623 135.508L26.6351 133.516L22.9695 131.534L19.3587 129.567L15.7955 127.62L12.2725 125.7L8.78186 123.811L5.31563 121.957L1.86584 120.142L-1.57563 118.37L-5.0168 116.644L-8.46565 114.966L-11.9299 113.339L-15.4172 111.763L-18.9348 110.241L-22.4894 108.772L-26.0876 107.356L-29.7354 105.994L-33.4381 104.684L-37.2007 103.425L-41.0275 102.215L-44.9219 101.053L-48.887 99.9351L-52.9249 98.8593L-57.037 97.8224L-61.2241 96.8207L-65.486 95.8508L-69.8219 94.9085L-74.2299 93.9898L-78.7076 93.0903L-83.2515 92.2056L-87.8574 91.3308L-92.5201 90.4614L-97.2338 89.5924L-101.992 88.719L-106.786 87.8362L-111.608 86.9387L-116.446 86.0213L-121.291 85.0786L-126.129 84.1053L-130.948 83.0966L-135.736 82.0476L-140.479 80.9541L-145.164 79.8123L-149.778 78.6188L-154.309 77.3704L-158.741 76.0641L-163.061 74.6969L-167.253 73.2663L-171.303 71.77L-175.194 70.2059L-178.912 68.5726L-182.442 66.869L-185.769 65.0945L-188.881 63.249L-191.764 61.3329L-194.407 59.3472L-196.798 57.2934L-198.929 55.1733L-200.789 52.9893L-202.373 50.7443L-203.675 48.4417L-204.691 46.0851L-205.417 43.6786L-205.854 41.2266L-206 38.7336L-205.858 36.2047L-205.433 33.6449L-204.728 31.0595L-203.75 28.4538L-202.508 25.8333L-201.011 23.2034L-199.27 20.5695L-197.298 17.937L-195.107 15.311L-192.713 12.6967L-190.131 10.099L-187.378 7.52248L-184.472 4.97157L-181.43 2.45036L-178.273 -0.0373524L-175.019 -2.48811L-171.688 -4.89886L-168.3 -7.26692L-164.876 -9.58998L-161.437 -11.8662L-158.002 -14.0941L-154.592 -16.2726L-151.227 -18.4011L-147.925 -20.4795L-144.706 -22.508L-141.588 -24.4872L-138.589 -26.4181L-135.725 -28.3023L-133.011 -30.1414L-130.463 -31.9377L-128.094 -33.6935L-125.915 -35.4117L-123.94 -37.0953L-122.177 -38.7475L-120.634 -40.3719L-119.32 -41.9721L-118.24 -43.552L-117.398 -45.1156L-116.798 -46.6668L-116.44 -48.2099L-116.326 -49.7489L-116.454 -51.2879L-116.821 -52.8311L-117.424 -54.3825L-118.257 -55.946L-119.314 -57.5254L-120.587 -59.1244L-122.068 -60.7463L-123.745 -62.3944L-125.609 -64.0718L-127.647 -65.7812L-129.845 -67.5251L-132.19 -69.3056L-134.666 -71.1245L-137.258 -72.9835L-139.948 -74.8835L-142.72 -76.8254L-145.554 -78.8095L-148.432 -80.8357L-151.333 -82.9035L-154.239 -85.012L-157.127 -87.1597L-159.978 -89.3448L-162.769 -91.565L-165.479 -93.8173L-168.087 -96.0987L-170.573 -98.4055L-172.916 -100.734L-175.099 -103.08L-177.104 -105.438L-178.916 -107.806L-180.518 -110.176L-181.896 -112.545L-183.036 -114.907L-183.926 -117.256L-184.554 -119.588L-184.91 -121.895L-184.986 -124.173L-184.773 -126.416L-184.268 -128.617L-183.464 -130.773L-182.36 -132.876L-180.955 -134.923L-179.248 -136.908L-177.243 -138.826L-174.941 -140.673L-172.35 -142.445L-169.474 -144.139L-166.321 -145.751L-162.901 -147.278L-159.225 -148.718L-155.302 -150.069L-151.146 -151.33L-146.77 -152.5L-142.189 -153.578L-137.418 -154.564L-132.473 -155.461L-127.369 -156.267L-122.124 -156.986L-116.756 -157.62L-111.281 -158.171L-105.717 -158.642L-100.083 -159.038L-94.3952 -159.363L-88.6717 -159.622L-82.9299 -159.819L-77.1866 -159.961L-71.4583 -160.052L-65.7611 -160.101L-60.1104 -160.112L-54.5207 -160.093L-49.0061 -160.052L-43.5796 -159.995L-38.2533 -159.93L-33.0386 -159.864L-27.9456 -159.806L-22.9834 -159.763L-18.1601 -159.742L-13.4825 -159.752L-8.95631 -159.8L-4.5861 -159.893L-0.375182 -160.038L3.67437 -160.243L7.56165 -160.514L11.287 -160.857L14.8519 -161.278L18.2591 -161.783L21.5123 -162.376L24.6166 -163.063L27.5778 -163.846L30.4029 -164.73L33.1 -165.718L35.6778 -166.81L38.146 -168.009L40.515 -169.316L42.7957 -170.73L44.9999 -172.251L47.1394 -173.878L49.227 -175.608L51.2751 -177.438L53.2968 -179.366L55.305 -181.386L57.3126 -183.495L59.3323 -185.686L61.3767 -187.955L63.4579 -190.294L65.5874 -192.697L67.7764 -195.156L70.0352 -197.665L72.3735 -200.216L74.8002 -202.801L77.3233 -205.413L79.9498 -208.044L82.6859 -210.687L85.5363 -213.335L88.5054 -215.983L91.5962 -218.625L94.8113 -221.255L98.1524 -223.869L101.621 -226.461L105.217 -229.027L108.94 -231.564L112.791 -234.068L116.769 -236.535L120.872 -238.961L125.1 -241.342L129.45 -243.675L133.922 -245.955L138.511 -248.18L143.216 -250.346L148.033 -252.45L152.96 -254.488L157.993 -256.459L163.127 -258.359L168.36 -260.186L173.686 -261.938L179.101 -263.612L184.601 -265.207L190.181 -266.721L195.836 -268.153L201.561 -269.501L207.352 -270.764L213.202 -271.94L219.107 -273.029L225.061 -274.029L231.06 -274.94L237.097 -275.76L243.167 -276.49L249.265 -277.128L255.385 -277.674L261.521 -278.126L267.668 -278.486L273.819 -278.752L279.97 -278.923L286.113 -279L292.244 -278.982L298.356 -278.868L304.444 -278.66L310.501 -278.355L316.52 -277.955L322.497 -277.459L328.425 -276.867L334.298 -276.18L340.109 -275.397L345.853 -274.52L351.524 -273.548L357.115 -272.482L362.62 -271.323L368.035 -270.072L373.352 -268.729L378.566 -267.296L383.672 -265.774L388.664 -264.164L393.537 -262.468L398.285 -260.687L402.906 -258.824L407.392 -256.881L411.741 -254.858L415.948 -252.76L420.009 -250.588L423.921 -248.344L427.68 -246.032L431.284 -243.655L434.731 -241.215L438.017 -238.715L441.141 -236.158L444.103 -233.549L446.9 -230.889L449.531 -228.183L451.998 -225.435L454.3 -222.647L456.436 -219.823L458.409 -216.967L460.22 -214.082L461.87 -211.173L463.361 -208.243L464.696 -205.296L465.877 -202.335L466.909 -199.365L467.795 -196.388L468.539 -193.408L469.146 -190.43L469.62 -187.456L469.967 -184.491L470.191 -181.536L470.297 -178.596L470.29 -175.672L470.174 -172.766L469.952 -169.881L469.631 -167.019L469.215 -164.182L468.709 -161.372L468.119 -158.591L467.45 -155.841L466.707 -153.123L465.896 -150.438L465.019 -147.789L464.081 -145.174L463.086 -142.595L462.036 -140.053L460.936 -137.547L459.789 -135.078L458.598 -132.647L457.368 -130.254L456.103 -127.9L454.806 -125.584L453.484 -123.307L452.14 -121.07L450.78 -118.873L449.409 -116.716L448.034 -114.599L446.659 -112.524L445.292 -110.489L443.938 -108.496L442.604 -106.544L441.297 -104.634L440.024 -102.764L438.791 -100.935L437.605 -99.1473L436.473 -97.3994L435.401 -95.6909L434.396 -94.0212L433.464 -92.3895L432.611 -90.7946L431.843 -89.2356L431.167 -87.711L430.585 -86.2196L430.105 -84.7598L429.73 -83.33L429.464 -81.9285L429.312 -80.5533L429.275 -79.2025L429.358 -77.8742L429.563 -76.5662L429.891 -75.2762L430.344 -74.0022L430.923 -72.7417L431.628 -71.4925L432.46 -70.2522L433.418 -69.0185L434.503 -67.789L435.711 -66.5613L437.043 -65.333L438.495 -64.102L440.067 -62.8658L441.755 -61.6221L443.557 -60.3689L445.47 -59.1038L447.489 -57.8249L449.612 -56.5299L451.835 -55.2171L454.154 -53.8843L456.564 -52.5299L459.062 -51.1519L461.642 -49.7489" fill="url(#paint1_linear_377_1115)"/>
<defs>
<linearGradient id="paint0_linear_377_1115" x1="121.751" y1="-407.975" x2="423.567" y2="13.8493" gradientUnits="userSpaceOnUse">
<stop stop-color="#1C0F2A"/>
<stop offset="1" stop-color="#8024CF"/>
</linearGradient>
<linearGradient id="paint1_linear_377_1115" x1="-312.219" y1="-32.1452" x2="350.994" y2="253.228" gradientUnits="userSpaceOnUse">
<stop stop-color="#1C0F2A"/>
<stop offset="1" stop-color="#8024CF"/>
</linearGradient>
</defs>
</svg>
