<?xml version="1.0" standalone="no"?>
<!DOCTYPE svg PUBLIC "-//W3C//DTD SVG 20010904//EN"
 "http://www.w3.org/TR/2001/REC-SVG-20010904/DTD/svg10.dtd">
<svg version="1.0" xmlns="http://www.w3.org/2000/svg"
 width="221.000000pt" height="257.000000pt" viewBox="0 0 221.000000 257.000000"
 preserveAspectRatio="xMidYMid meet">

<g transform="translate(0.000000,257.000000) scale(0.100000,-0.100000)"
fill="#000000" stroke="none">
<path d="M791 1961 l-391 -226 0 -455 0 -455 372 -215 c204 -118 381 -220 392
-226 18 -10 72 18 411 215 l390 226 0 455 0 455 -200 116 c-110 63 -286 165
-391 226 l-191 110 -392 -226z m417 -198 c5 -10 26 -88 47 -173 21 -85 41
-160 44 -167 3 -7 50 40 111 112 58 69 110 126 117 129 6 3 19 -1 29 -8 16
-13 13 -27 -59 -235 -42 -121 -74 -221 -71 -221 3 0 52 38 110 85 59 47 112
85 119 85 7 0 18 -6 24 -14 9 -11 -15 -74 -112 -292 -102 -227 -128 -280 -146
-282 -28 -4 -32 6 -86 228 -25 102 -51 203 -56 225 l-11 39 -35 -42 c-19 -23
-41 -42 -48 -42 -7 0 -31 19 -53 41 l-39 41 -52 -208 c-77 -309 -69 -284 -95
-284 -20 0 -36 30 -145 275 -67 152 -121 283 -119 293 7 35 39 22 135 -55 54
-44 103 -82 110 -86 6 -4 -20 86 -58 200 -70 212 -78 248 -56 256 22 8 35 -4
144 -130 l107 -126 43 174 c24 96 46 180 48 187 6 18 43 15 53 -5z"/>
<path d="M1177 1600 c-4 -8 -19 -68 -36 -132 l-29 -118 37 -40 36 -40 33 39
32 40 -34 133 c-18 73 -36 126 -39 118z"/>
<path d="M958 1343 c25 -78 49 -140 53 -138 3 3 12 31 19 64 15 69 14 70 -69
161 l-50 55 47 -142z"/>
<path d="M1382 1405 l-63 -74 17 -66 c9 -36 18 -64 19 -63 6 8 95 271 92 274
-2 2 -31 -30 -65 -71z"/>
<path d="M863 1071 c40 -90 74 -156 78 -149 9 18 42 158 38 162 -2 1 -40 31
-84 66 -44 35 -85 68 -92 72 -6 5 21 -63 60 -151z"/>
<path d="M1474 1155 l-92 -74 21 -85 c12 -47 24 -83 28 -78 9 9 140 305 136
308 -1 1 -43 -31 -93 -71z"/>
</g>
</svg>
