<svg width="336" height="371" fill="none" xmlns="http://www.w3.org/2000/svg"><path fill-rule="evenodd" clip-rule="evenodd" d="M0 191.652c0-36.066 11.365-69.478 30.709-96.85l57.749 9.688C64.826 126.068 50 157.128 50 191.652c0 40.285 20.188 75.856 51 97.147V106.652h93l-3.608 34.256h-52.353v164.906A118.186 118.186 0 00168 309.652c65.17 0 118-52.831 118-118 0-65.17-52.83-118-118-118-8.634 0-17.052.927-25.158 2.687l-14.816-47.903A168.407 168.407 0 01168 23.652c92.784 0 168 75.216 168 168 0 92.783-75.216 168-168 168s-168-75.217-168-168z" fill="#fff"/><path d="M143 181.652h45.444l143.235 188.5H289l-146-188.5z" fill="#fff"/><path d="M132.434 47.873l25.067-40.447-11.299-2.596-32.006 49.259L151 87.965l21.002.117-38.961-35.788-2.133-1.96 1.526-2.461z" fill="#fff" stroke="#fff" stroke-width="7"/><path fill-rule="evenodd" clip-rule="evenodd" d="M174.124 106.652c-3.796 5.427 1.403 18.874 8.235 32.188 10.523 1.397 18.642 10.406 18.642 21.312 0 11.126-8.451 20.278-19.285 21.387-3.175 14.769-.641 29.113 10.295 29.113 19.033 0 38.941-24.028 38.941-50.147 1.003-22.231-13.7-46.196-35.97-53.853h-20.858z" fill="#fff"/></svg>